Patient4_TMGait_0pt3_03_right_25_GRF.mot
version=1
nRows=51
nColumns=19
inDegrees=no
endheader
time	F1x	F1y	F1z	M1x	M1y	M1z	F2x	F2y	F2z	M2x	M2y	M2z	EC1x	EC1y	EC1z	EC2x	EC2y	EC2z
46.66	-10.9787	758.9486	57.7615	-299.3905	-57.6543	718.1738	7.6548	14.2799	0.93575	3.4399	-3.3177	11.4362	-0.0592	0.0182	-0.0073	-0.0462	0.0165	0.9585
46.6786	-12.1271	765.3486	57.1823	-301.5959	-56.9626	722.0464	5.1049	10.1033	0.75622	2.4704	-2.3397	8.2474	-0.0592	0.0182	-0.0073	-0.0462	0.0165	0.9585
46.6971	-13.1649	773.8463	56.6349	-304.6601	-56.2554	727.6283	2.9525	6.5741	0.59599	1.6552	-1.5006	5.5605	-0.0592	0.0182	-0.0073	-0.0462	0.0165	0.9585
46.7157	-14.0267	784.4479	56.211	-308.5868	-55.6197	734.9891	1.3164	3.9042	0.47161	1.0418	-0.85552	3.5365	-0.0592	0.0182	-0.0073	-0.0462	0.0165	0.9585
46.7343	-14.6943	796.8239	55.9825	-313.2285	-55.1207	743.8566	0.18576	2.0869	0.38542	0.62811	-0.40697	2.1717	-0.0592	0.0182	-0.0073	-0.0462	0.0165	0.9585
46.7529	-15.1439	810.2404	55.9673	-318.2765	-54.7587	753.5517	-0.51606	0.99487	0.33099	0.38511	-0.12781	1.3591	-0.0592	0.0182	-0.0073	-0.0462	0.0165	0.9585
46.7714	-15.3116	823.5791	56.1284	-323.278	-54.4636	763.0045	-0.89151	0.45097	0.30076	0.27154	0.018656	0.95158	-0.0592	0.0182	-0.0073	-0.0462	0.0165	0.9585
46.79	-15.0917	835.4267	56.3838	-327.6778	-54.1098	770.8619	-1.0403	0.26889	0.28932	0.24276	0.069271	0.80857	-0.0592	0.0182	-0.0073	-0.0462	0.0165	0.9585
46.8086	-14.3658	844.2445	56.6162	-330.8836	-53.5419	775.6731	-1.0411	0.27729	0.29435	0.25543	0.053163	0.79831	-0.0592	0.0182	-0.0073	-0.0462	0.0165	0.9585
46.8271	-13.0299	848.6527	56.6977	-332.3702	-52.608	776.1597	-0.95311	0.32518	0.317	0.26963	-0.0084643	0.79373	-0.0592	0.0182	-0.0073	-0.0462	0.0165	0.9585
46.8457	-11.0143	847.7181	56.5227	-331.7855	-51.1939	771.4871	-0.81721	0.28264	0.35452	0.24914	-0.099864	0.67682	-0.0592	0.0182	-0.0073	-0.0462	0.0165	0.9585
46.8643	-8.3057	841.1135	56.0367	-329.0062	-49.2532	761.4125	-0.6566	0.037314	0.40291	0.16023	-0.21164	0.34105	-0.0592	0.0182	-0.0073	-0.0462	0.0165	0.9585
46.8829	-4.9454	829.1789	55.2451	-324.1598	-46.8113	746.3224	-0.48223	-0.50427	0.45594	-0.026966	-0.33443	-0.30281	-0.0592	0.0182	-0.0073	-0.0462	0.0165	0.9585
46.9014	-1.005	812.8938	54.2091	-317.6183	-43.9507	727.1875	-0.29917	-1.399	0.50385	-0.33367	-0.45366	-1.3089	-0.0592	0.0182	-0.0073	-0.0462	0.0165	0.9585
46.92	3.4207	793.7387	53.038	-309.9503	-40.8028	705.4226	-0.1126	-2.6486	0.52533	-0.76455	-0.54298	-2.6755	-0.0592	0.0182	-0.0073	-0.0462	0.0165	0.9585
46.9386	8.25	773.5174	51.866	-301.8547	-37.5161	682.7046	0.065388	-4.1717	0.48455	-1.297	-0.55888	-4.3138	-0.0592	0.0182	-0.0073	-0.0462	0.0165	0.9585
46.9571	13.4309	754.1277	50.8306	-294.07	-34.2324	660.7488	0.21141	-5.7578	0.33055	-1.8649	-0.43747	-5.9906	-0.0592	0.0182	-0.0073	-0.0462	0.0165	0.9585
46.9757	18.9166	737.2738	50.061	-287.2597	-31.0833	641.0618	0.28797	-7.009	0.00025282	-2.3388	-0.096517	-7.2621	-0.0592	0.0182	-0.0073	-0.0462	0.0165	0.9585
46.9943	24.6289	724.1493	49.6689	-281.8894	-28.1923	624.694	0.23548	-7.2857	-0.57621	-2.5061	0.56141	-7.4226	-0.0592	0.0182	-0.0073	-0.0462	0.0165	0.9585
47.0129	30.4609	715.2277	49.7247	-278.1449	-25.6574	612.07	-0.029826	-5.6631	-1.4631	-2.0542	1.6395	-5.469	-0.0592	0.0182	-0.0073	-0.0462	0.0165	0.9585
47.0314	36.2641	710.1667	50.2349	-275.8926	-23.5384	602.9247	-0.61736	-0.92251	-2.696	-0.56554	3.2211	-0.09637	-0.0592	0.0182	-0.0073	-0.0462	0.0165	0.9585
47.05	41.8289	707.7705	51.142	-274.6633	-21.8671	596.294	-1.6547	8.3787	-4.249	2.4629	5.33	10.2225	-0.0592	0.0182	-0.0073	-0.0462	0.0165	0.9585
47.0686	46.902	706.0854	52.3201	-273.6912	-20.6421	590.6065	-3.2675	23.7248	-5.9891	7.5607	7.8704	27.0244	-0.0592	0.0182	-0.0073	-0.0462	0.0165	0.9585
47.0871	51.2063	702.6487	53.5708	-272.0123	-19.814	583.8989	-5.5519	46.3182	-7.6404	15.1772	10.5804	51.5031	-0.0592	0.0182	-0.0073	-0.0462	0.0165	0.9585
47.1057	54.4802	694.8865	54.6348	-268.6209	-19.281	574.138	-8.6193	76.8036	-8.9624	25.576	13.2424	84.2242	-0.0592	0.0182	-0.0073	-0.0462	0.0165	0.9585
47.1243	56.53	680.5965	55.2338	-262.6602	-18.9037	559.6027	-12.6865	114.9684	-10.0345	38.7049	16.0176	124.848	-0.0592	0.0182	-0.0073	-0.0462	0.0165	0.9585
47.1429	57.2461	658.3092	55.1325	-253.5678	-18.5453	539.168	-17.8167	159.2433	-11.1894	54.014	19.2699	171.63	-0.0592	0.0182	-0.0073	-0.0462	0.0165	0.9585
47.1614	56.6298	627.652	54.1792	-241.2194	-18.0932	512.571	-23.5695	206.4454	-12.7595	70.3748	23.1667	221.1452	-0.0592	0.0182	-0.0073	-0.0462	0.0165	0.9585
47.18	54.8722	589.6953	52.3312	-226.0644	-17.4464	480.646	-29.2018	252.6477	-15.0033	86.3917	27.6867	269.241	-0.0592	0.0182	-0.0073	-0.0462	0.0165	0.9585
47.1986	52.365	546.9117	49.6715	-209.1016	-16.5164	445.2782	-34.1961	295.3976	-17.8153	101.1953	32.5262	313.4007	-0.0592	0.0182	-0.0073	-0.0462	0.0165	0.9585
47.2171	49.5715	502.3895	46.37	-191.5638	-15.2422	408.8073	-38.3202	334.4881	-20.7752	114.7185	37.182	353.5082	-0.0592	0.0182	-0.0073	-0.0462	0.0165	0.9585
47.2357	46.8434	458.7499	42.6026	-174.4905	-13.6017	373.2156	-41.5543	370.6882	-23.4568	127.2366	41.2288	390.4774	-0.0592	0.0182	-0.0073	-0.0462	0.0165	0.9585
47.2543	44.343	417.5527	38.5195	-158.4942	-11.6267	339.6809	-44.021	404.6537	-25.6858	138.9645	44.542	425.1024	-0.0592	0.0182	-0.0073	-0.0462	0.0165	0.9585
47.2729	42.0761	379.2321	34.2746	-143.7347	-9.418	308.5197	-45.8967	436.5974	-27.5655	149.9386	47.2846	457.6899	-0.0592	0.0182	-0.0073	-0.0462	0.0165	0.9585
47.2914	39.9465	343.3235	30.0282	-130.0114	-7.1272	279.3413	-47.3397	466.4404	-29.3337	160.0833	49.7387	488.1847	-0.0592	0.0182	-0.0073	-0.0462	0.0165	0.9585
47.31	37.7994	308.868	25.9182	-116.9267	-4.9162	251.369	-48.458	494.1185	-31.2112	169.3387	52.1491	516.4744	-0.0592	0.0182	-0.0073	-0.0462	0.0165	0.9585
47.3286	35.4536	274.8566	22.0222	-104.0629	-2.9175	223.7952	-49.292	519.8624	-33.3436	177.7677	54.6616	542.6876	-0.0592	0.0182	-0.0073	-0.0462	0.0165	0.9585
47.3471	32.7433	240.5705	18.364	-91.117	-1.22	196.0414	-49.8347	544.2711	-35.7776	185.5874	57.3068	567.292	-0.0592	0.0182	-0.0073	-0.0462	0.0165	0.9585
47.3657	29.5464	205.7969	14.9398	-77.9875	0.12344	167.9285	-50.0467	568.1727	-38.4552	193.119	60.0047	590.9748	-0.0592	0.0182	-0.0073	-0.0462	0.0165	0.9585
47.3843	25.8103	170.9547	11.7603	-64.8214	1.0761	139.7809	-49.8796	592.3471	-41.2654	200.6839	62.6268	614.3789	-0.0592	0.0182	-0.0073	-0.0462	0.0165	0.9585
47.4029	21.6018	137.0714	8.8748	-52.0031	1.6225	112.4023	-49.2719	617.2643	-44.0753	208.5088	65.0284	637.8545	-0.0592	0.0182	-0.0073	-0.0462	0.0165	0.9585
47.4214	17.1239	105.5099	6.3647	-40.0499	1.7797	86.8562	-48.1572	642.9348	-46.706	216.6705	67.0285	661.3267	-0.0592	0.0182	-0.0073	-0.0462	0.0165	0.9585
47.44	12.6511	77.5028	4.3087	-29.4315	1.5963	64.1169	-46.4826	668.8101	-48.9384	225.0524	68.4134	684.1981	-0.0592	0.0182	-0.0073	-0.0462	0.0165	0.9585
47.4586	8.4593	53.8192	2.7327	-20.4441	1.1604	44.806	-44.2106	693.8172	-50.5852	233.3442	69.0012	705.3814	-0.0592	0.0182	-0.0073	-0.0462	0.0165	0.9585
47.4771	4.8141	34.7365	1.5954	-13.1992	0.60867	29.1701	-41.3266	716.6212	-51.5678	241.119	68.7158	723.5737	-0.0592	0.0182	-0.0073	-0.0462	0.0165	0.9585
47.4957	1.9519	20.1564	0.81259	-7.6634	0.097678	17.1663	-37.8838	736.0173	-51.9239	247.9629	67.6081	737.6646	-0.0592	0.0182	-0.0073	-0.0462	0.0165	0.9585
47.5143	0.0092142	9.7166	0.29346	-3.6998	-0.25289	8.5252	-34.0244	751.2881	-51.7753	253.599	65.8334	747.0954	-0.0592	0.0182	-0.0073	-0.0462	0.0165	0.9585
47.5329	-1.0899	2.8725	-0.033126	-1.1	-0.41965	2.8214	-29.9924	762.386	-51.2953	257.9559	63.6267	752.044	-0.0592	0.0182	-0.0073	-0.0462	0.0165	0.9585
47.5514	-1.5734	-1.0708	-0.21375	0.40181	-0.45835	-0.4969	-26.114	769.9489	-50.6685	261.1812	61.265	753.4175	-0.0592	0.0182	-0.0073	-0.0462	0.0165	0.9585
47.57	-1.6597	-2.8869	-0.28907	1.0994	-0.42676	-2.0559	-22.7217	775.1719	-50.0628	263.6087	59.023	752.6731	-0.0592	0.0182	-0.0073	-0.0462	0.0165	0.9585
47.5886	-1.5223	-3.2918	-0.2957	1.2627	-0.36642	-2.4445	-20.0685	779.5157	-49.6114	265.6714	57.1247	751.4712	-0.0592	0.0182	-0.0073	-0.0462	0.0165	0.9585
